<svg width="56" height="43" viewBox="0 0 56 43" fill="none" xmlns="http://www.w3.org/2000/svg">
    <path fill-rule="evenodd" clip-rule="evenodd" d="M32.0619 22.464C31.3005 22.7591 30.5663 23.1202 29.8678 23.5433L29.7387 23.6195C31.0653 24.9197 32.687 25.8792 34.4652 26.4159C34.0586 25.944 33.6847 25.445 33.3462 24.9222C32.8422 24.1455 32.4102 23.3244 32.0555 22.4692L32.0619 22.464ZM41.5291 21.7578C40.4236 21.5182 39.2967 21.3915 38.1656 21.3796C36.7895 21.3654 35.4168 21.5193 34.078 21.8379C34.3671 22.5113 34.7125 23.1591 35.1105 23.7744C35.648 24.6084 36.2934 25.3676 37.0298 26.0325C37.528 26.4637 38.0623 26.5037 38.5554 26.0221C39.2865 25.3597 39.9275 24.604 40.4617 23.7744C40.8778 23.1331 41.2371 22.4566 41.5356 21.7527L41.5291 21.7578ZM45.9613 23.484C45.2005 23.0235 44.3964 22.6387 43.5606 22.3349C43.1962 23.2363 42.7467 24.1009 42.2183 24.917C41.8789 25.4392 41.5051 25.9382 41.0993 26.4107C42.939 25.8568 44.6106 24.8506 45.9613 23.484V23.484ZM44.2318 20.348C45.3094 20.7346 46.3413 21.2386 47.3088 21.8508C48.3995 20.245 49.0632 18.3878 49.2371 16.4543H44.832C44.7693 17.7697 44.5681 19.0748 44.2318 20.348V20.348ZM33.39 19.8523C36.2873 19.1282 39.3142 19.0964 42.2261 19.7593C42.51 18.678 42.683 17.5706 42.7424 16.4543H32.835C32.8973 17.6029 33.0798 18.7418 33.3797 19.8523H33.39ZM28.3873 22.0096C28.5164 21.9218 28.6571 21.8366 28.7952 21.7514C29.6209 21.2512 30.4901 20.8264 31.3921 20.4823C31.0298 19.1669 30.8134 17.8157 30.7467 16.453H26.339C26.5191 18.452 27.222 20.3684 28.377 22.0096H28.3873ZM31.4411 10.3322C30.5228 9.98348 29.6385 9.55132 28.7991 9.04113C28.6623 8.9585 28.5267 8.87329 28.3938 8.78292C27.2349 10.4251 26.5297 12.344 26.3494 14.346H30.7596C30.8372 12.9877 31.0622 11.6418 31.4308 10.3322H31.4411ZM42.1667 11.0513C39.2864 11.6984 36.2951 11.6675 33.4288 10.9609C33.1178 12.0699 32.9232 13.2083 32.848 14.3576H42.723C42.6491 13.2396 42.4627 12.1319 42.1667 11.0513ZM47.2985 8.95205C46.3179 9.57279 45.2706 10.0812 44.1763 10.4677C44.5267 11.7369 44.743 13.0394 44.8216 14.3537H49.2319C49.0575 12.4181 48.3925 10.559 47.2998 8.95205H47.2985ZM43.4974 8.48727C44.3537 8.18301 45.1774 7.79375 45.9562 7.32534C44.5806 5.932 42.8719 4.91342 40.9922 4.36629C41.5087 4.96916 41.9749 5.61339 42.3861 6.29251C42.8129 6.99438 43.1848 7.72814 43.4987 8.48727H43.4974ZM34.1373 8.97528C36.5454 9.53601 39.0466 9.56553 41.4672 9.06178C41.2163 8.47916 40.9256 7.91451 40.5972 7.37182C40.0028 6.38799 39.2709 5.49417 38.4237 4.71745C37.901 4.30948 37.6416 4.31981 37.133 4.71745C36.2861 5.49424 35.555 6.38857 34.9621 7.37311C34.6525 7.88835 34.3774 8.42358 34.1386 8.97528H34.1373ZM29.749 7.18074L29.869 7.25562C30.5859 7.68915 31.3401 8.0577 32.1226 8.35688C32.4236 7.64344 32.7764 6.95303 33.1784 6.29122C33.5896 5.6121 34.0558 4.96787 34.5723 4.36499C32.7585 4.89215 31.103 5.85939 29.7529 7.18074H29.749ZM37.781 1.87717C40.456 1.87615 43.0712 2.66868 45.2959 4.15454C47.5206 5.64039 49.2548 7.75281 50.2791 10.2246C51.3035 12.6964 51.5719 15.4166 51.0506 18.041C50.5293 20.6655 49.2415 23.0763 47.3503 24.9687C45.459 26.861 43.0492 28.1497 40.4256 28.672C37.802 29.1942 35.0825 28.9264 32.6111 27.9025C30.1396 26.8786 28.0273 25.1446 26.5412 22.9197C25.0551 20.6948 24.2621 18.0791 24.2623 15.4034C24.2623 13.6271 24.6121 11.8682 25.2916 10.2271C25.9712 8.58604 26.9673 7.09492 28.223 5.83889C29.4786 4.58287 30.9694 3.58654 32.61 2.90679C34.2506 2.22703 36.009 1.87717 37.7848 1.87717H37.781ZM37.781 4.87164e-07C40.8268 -0.000765583 43.8044 0.901974 46.3373 2.59405C48.8702 4.28613 50.8446 6.69154 52.0107 9.50606C53.1768 12.3206 53.4823 15.4178 52.8886 18.406C52.2948 21.3942 50.8285 24.1392 48.6751 26.2938C46.5216 28.4484 43.7777 29.9158 40.7905 30.5105C37.8032 31.1051 34.7068 30.8003 31.8927 29.6346C29.0787 28.4688 26.6734 26.4946 24.9812 23.9614C23.2889 21.4282 22.3857 18.45 22.3857 15.4034C22.3857 11.3181 24.0081 7.40023 26.896 4.51154C29.7839 1.62285 33.7007 4.87164e-07 37.7848 4.87164e-07H37.781Z" fill="white"/>
    <path d="M28.3822 31.021L28.7784 32.6309H47.7851C48.6369 32.6309 49.3339 33.2636 49.3339 34.0433C49.3339 34.8231 48.6434 35.4635 47.7851 35.4635H27.551C26.8463 35.4635 26.2112 35.0194 26.0499 34.3648L21.064 14.1252H15.9413C15.0765 14.1252 14.1924 13.5714 14.1924 12.727C14.1924 11.8827 15.0765 11.3276 15.9413 11.3276H22.516C23.2904 11.3276 24.0932 11.7691 24.2417 12.5011V12.5166L25.1038 15.8204H53.1905C54.9226 15.8707 55.2556 16.3962 54.8412 17.886L52.1915 28.2608C51.6081 30.4181 49.9199 31.0869 47.625 31.043H29.3308C29.0144 31.0505 28.6977 31.0414 28.3822 31.0159" fill="white"/>
    <path opacity="0.04" fill-rule="evenodd" clip-rule="evenodd" d="M53.4241 19.9556L54.0075 17.6743V17.6665C54.0475 17.522 54.1739 17.0094 54.1262 16.8416C53.9661 16.7293 53.3621 16.6944 53.175 16.6879H24.4391L23.4066 12.7154L23.3975 12.6741C23.333 12.3462 22.8064 12.1964 22.5186 12.1964H15.9413C15.6547 12.1964 15.0558 12.3668 15.0558 12.7322C15.0558 13.0976 15.6547 13.268 15.9413 13.268H21.739L23.3356 19.74C27.3721 21.0006 31.5465 21.7666 35.7675 22.0212L35.3351 20.4074C35.2957 20.2611 35.2955 20.1071 35.3346 19.9607C35.3736 19.8143 35.4505 19.6808 35.5576 19.5736C35.6646 19.4664 35.798 19.3893 35.9443 19.3501C36.0905 19.3108 36.2446 19.3108 36.3909 19.3501L41.2413 20.6437C41.379 20.6808 41.5054 20.7516 41.6092 20.8496C41.7129 20.9475 41.7908 21.0697 41.8358 21.2051C41.8808 21.3406 41.8915 21.4851 41.8671 21.6257C41.8426 21.7663 41.7837 21.8986 41.6956 22.0109C45.6697 21.7656 49.6038 21.0753 53.4241 19.953" fill="black"/>
    <path fill-rule="evenodd" clip-rule="evenodd" d="M7.22397 18.0977H19.279C19.5694 18.0984 19.8477 18.2141 20.0531 18.4195C20.2584 18.6249 20.3741 18.9033 20.3748 19.1938V19.1938C20.3741 19.4843 20.2584 19.7627 20.0531 19.9681C19.8477 20.1735 19.5694 20.2892 19.279 20.2899H7.22397C6.93355 20.2892 6.65523 20.1735 6.44988 19.9681C6.24452 19.7627 6.12886 19.4843 6.12817 19.1938V19.1938C6.12886 18.9033 6.24452 18.6249 6.44988 18.4195C6.65523 18.2141 6.93355 18.0984 7.22397 18.0977" fill="white"/>
    <path fill-rule="evenodd" clip-rule="evenodd" d="M11.8459 23.6131H19.9772C20.2676 23.6137 20.546 23.7294 20.7513 23.9348C20.9567 24.1403 21.0723 24.4186 21.073 24.7091V24.7091C21.0723 24.9996 20.9567 25.278 20.7513 25.4834C20.546 25.6888 20.2676 25.8045 19.9772 25.8052H11.8459C11.5555 25.8045 11.2772 25.6888 11.0718 25.4834C10.8665 25.278 10.7508 24.9996 10.7501 24.7091V24.7091C10.7508 24.4186 10.8665 24.1403 11.0718 23.9348C11.2772 23.7294 11.5555 23.6137 11.8459 23.6131" fill="white"/>
    <path fill-rule="evenodd" clip-rule="evenodd" d="M1.09579 28.6313H22.134C22.4244 28.632 22.7027 28.7477 22.9081 28.9531C23.1134 29.1585 23.2291 29.4369 23.2298 29.7274C23.2291 30.0179 23.1134 30.2963 22.9081 30.5017C22.7027 30.7071 22.4244 30.8228 22.134 30.8235H1.09579C0.805378 30.8228 0.527056 30.7071 0.321703 30.5017C0.116349 30.2963 0.000681723 30.0179 0 29.7274C0.000681723 29.4369 0.116349 29.1585 0.321703 28.9531C0.527056 28.7477 0.805378 28.632 1.09579 28.6313" fill="white"/>
    <path fill-rule="evenodd" clip-rule="evenodd" d="M31.8928 37.8532C32.3035 37.8514 32.7054 37.9716 33.0478 38.1985C33.3901 38.4255 33.6573 38.7489 33.8156 39.128C33.974 39.507 34.0163 39.9245 33.9372 40.3276C33.858 40.7306 33.6611 41.1012 33.3713 41.3922C33.0814 41.6832 32.7117 41.8816 32.3091 41.9622C31.9064 42.0428 31.4888 42.0021 31.1093 41.8451C30.7298 41.6882 30.4055 41.4221 30.1773 41.0805C29.9492 40.739 29.8275 40.3374 29.8277 39.9266C29.8267 39.6547 29.8794 39.3852 29.9827 39.1337C30.086 38.8822 30.238 38.6536 30.4299 38.461C30.6217 38.2683 30.8497 38.1155 31.1008 38.0112C31.3518 37.9069 31.621 37.8532 31.8928 37.8532Z" fill="white"/>
    <path fill-rule="evenodd" clip-rule="evenodd" d="M43.793 37.8532C44.2036 37.8514 44.6056 37.9716 44.9479 38.1985C45.2902 38.4255 45.5574 38.7489 45.7158 39.128C45.8741 39.507 45.9164 39.9245 45.8373 40.3276C45.7582 40.7306 45.5612 41.1012 45.2714 41.3922C44.9815 41.6832 44.6119 41.8816 44.2092 41.9622C43.8065 42.0428 43.389 42.0021 43.0095 41.8451C42.63 41.6882 42.3056 41.4221 42.0774 41.0805C41.8493 40.739 41.7276 40.3374 41.7279 39.9266C41.7269 39.6547 41.7795 39.3852 41.8828 39.1337C41.9862 38.8822 42.1381 38.6536 42.33 38.461C42.5218 38.2683 42.7498 38.1155 43.0009 38.0112C43.252 37.9069 43.5211 37.8532 43.793 37.8532Z" fill="white"/>
    <path fill-rule="evenodd" clip-rule="evenodd" d="M36.1676 20.1802L38.5915 20.8296L41.0167 21.479L40.2178 22.2781L42.9992 25.0616L41.0477 27.0136L38.2663 24.2315L37.4673 25.0306L36.8168 22.6048L36.1676 20.1802Z" fill="#037EE6"/>
</svg>
